<svg width="512" height="512" viewBox="0 0 512 512" fill="none" xmlns="http://www.w3.org/2000/svg">
  <style>
    path {
    fill: #361715;
    }
    rect {
    fill: #F7EEE5;
    }

    @media (prefers-color-scheme: dark) {
    rect {
    fill: #2c2b33;
    }
    path {
    fill: #e8eaf3;
    }
    }
  </style>
  <g clip-path="url(#clip0_779_2)">
    <rect width="512" height="512" rx="89" />
    <path
      d="M323.808 433.608C319.029 424.051 314.592 415.176 310.496 406.984C306.741 398.792 303.157 390.771 299.744 382.92C296.331 375.069 292.576 366.877 288.48 358.344C283.019 346.056 277.728 335.475 272.608 326.6C267.829 317.725 262.197 309.533 255.712 302.024C249.568 294.515 241.888 286.835 232.672 278.984L253.152 284.104C243.936 284.445 235.744 284.616 228.576 284.616C221.408 284.616 213.728 284.445 205.536 284.104L208.096 250.824C213.216 251.507 217.483 252.019 220.896 252.36C224.309 252.701 227.552 252.872 230.624 252.872C244.96 252.872 257.931 250.312 269.536 245.192C281.483 240.072 291.04 232.221 298.208 221.64C305.717 211.059 309.472 197.576 309.472 181.192C309.472 160.029 303.84 143.304 292.576 131.016C281.653 118.387 264.587 112.072 241.376 112.072C235.232 112.072 229.6 112.584 224.48 113.608C219.701 114.291 214.411 115.485 208.608 117.192L212.192 103.368V345.032C212.192 360.051 213.045 371.485 214.752 379.336C216.8 386.845 219.872 391.965 223.968 394.696C228.405 397.085 234.208 398.621 241.376 399.304C242.4 402.376 243.083 406.984 243.424 413.128C244.107 418.931 244.448 424.733 244.448 430.536C237.621 430.195 229.429 429.853 219.872 429.512C210.656 429.512 201.269 429.341 191.712 429C182.496 429 174.816 429 168.672 429C157.067 429 144.779 429 131.808 429C119.179 429.341 107.744 429.853 97.504 430.536C97.504 424.051 97.6747 418.248 98.016 413.128C98.6987 408.008 99.7227 403.4 101.088 399.304C110.304 398.621 117.301 396.915 122.08 394.184C127.2 391.453 130.613 386.504 132.32 379.336C134.368 371.827 135.392 361.416 135.392 348.104V162.76C135.392 149.448 134.368 139.379 132.32 132.552C130.613 125.384 127.2 120.435 122.08 117.704C117.301 114.632 110.133 112.755 100.576 112.072C99.552 107.976 98.6987 102.856 98.016 96.712C97.6747 90.2266 97.504 85.1066 97.504 81.352C105.355 81.6933 116.107 82.0346 129.76 82.376C143.755 82.7173 158.261 82.888 173.28 82.888C184.885 82.888 199.221 82.5466 216.288 81.864C233.355 81.1813 250.933 80.84 269.024 80.84C297.013 80.84 319.883 84.936 337.632 93.128C355.381 101.32 368.352 112.413 376.544 126.408C385.077 140.061 389.344 155.421 389.344 172.488C389.344 191.944 385.419 208.84 377.568 223.176C369.717 237.512 358.795 249.117 344.8 257.992C330.805 266.525 314.763 272.328 296.672 275.4L304.352 268.744C314.251 274.888 322.443 281.373 328.928 288.2C335.413 294.685 341.899 303.219 348.384 313.8C354.869 324.04 362.891 338.205 372.448 356.296C378.251 366.536 383.371 374.557 387.808 380.36C392.245 386.163 397.365 390.429 403.168 393.16C409.312 395.549 416.992 397.085 426.208 397.768C426.208 403.571 425.867 409.032 425.184 414.152C424.843 418.931 423.819 423.88 422.112 429C402.315 429 383.883 429.341 366.816 430.024C349.749 430.707 335.413 431.901 323.808 433.608Z"
    />
  </g>
  <defs>
    <clipPath id="clip0_779_2">
      <rect width="512" height="512" fill="white" />
    </clipPath>
  </defs>
</svg>