<?xml version="1.0" standalone="no"?>
<!DOCTYPE svg PUBLIC "-//W3C//DTD SVG 20010904//EN"
 "http://www.w3.org/TR/2001/REC-SVG-20010904/DTD/svg10.dtd">
<svg version="1.0" xmlns="http://www.w3.org/2000/svg"
 width="700.000000pt" height="700.000000pt" viewBox="0 0 700.000000 700.000000"
 preserveAspectRatio="xMidYMid meet">
<metadata>
Created by potrace 1.14, written by Peter Selinger 2001-2017
</metadata>
<g transform="translate(0.000000,700.000000) scale(0.100000,-0.100000)"
fill="#000000" stroke="none">
<path d="M1335 5773 c6 -104 31 -292 40 -301 1 -2 34 -8 71 -13 153 -21 257
-72 310 -151 39 -57 70 -171 84 -303 8 -68 10 -571 8 -1570 -4 -1453 -4 -1471
-25 -1560 -25 -109 -37 -139 -69 -187 -50 -72 -147 -118 -291 -138 -42 -6 -80
-15 -84 -21 -18 -29 -39 -177 -41 -288 l-3 -125 100 5 c168 7 1807 4 1858 -3
l47 -8 0 63 c0 127 -29 367 -45 367 -26 0 -165 34 -197 48 -57 25 -111 87
-138 158 -46 123 -51 193 -57 797 l-5 567 185 0 184 0 77 -76 c285 -284 422
-518 791 -1354 43 -96 127 -273 187 -393 88 -176 112 -217 126 -213 33 10 349
36 562 46 118 5 337 10 487 10 l272 0 16 53 c17 61 31 155 40 284 l7 92 -33 5
c-19 3 -56 8 -84 11 -78 9 -196 44 -242 70 -136 80 -235 220 -513 725 -123
223 -233 403 -319 520 -73 100 -234 263 -320 325 -38 28 -70 52 -70 55 -1 3
47 21 107 40 142 45 336 144 443 224 210 159 372 382 448 621 55 171 66 250
65 480 0 195 -2 217 -27 308 -129 480 -489 790 -1047 901 -227 45 -327 50
-915 40 -645 -11 -1725 -11 -1883 -1 l-113 7 6 -117z m2113 -314 c259 -28 430
-109 565 -268 94 -110 146 -217 190 -390 18 -72 21 -115 21 -271 0 -157 -3
-198 -22 -273 -27 -107 -77 -218 -136 -301 -56 -78 -185 -200 -259 -244 -208
-125 -507 -189 -761 -163 -60 6 -118 11 -128 11 -17 0 -18 36 -18 925 l0 924
38 11 c39 11 193 37 252 43 75 8 165 7 258 -4z"/>
</g>
</svg>
