<svg width="2320" height="1160" fill="none" xmlns="http://www.w3.org/2000/svg"><g clip-path="url(#a)"><path fill="#fff" d="M0 0h2320v1160H0z"/><path d="M1160 0H0v1160h1160V0z" fill="#292929"/><path d="M440 80h-40v40h40V80zM480 80h-40v40h40V80zM520 80h-40v40h40V80zM560 80h-40v40h40V80zM680 80h-40v40h40V80zM760 80h-40v40h40V80zM440 120h-40v40h40v-40zM480 120h-40v40h40v-40zM560 120h-40v40h40v-40zM600 120h-40v40h40v-40zM760 120h-40v40h40v-40zM440 160h-40v40h40v-40zM520 160h-40v40h40v-40zM560 160h-40v40h40v-40zM640 160h-40v40h40v-40zM720 160h-40v40h40v-40zM760 160h-40v40h40v-40zM480 200h-40v40h40v-40zM520 200h-40v40h40v-40zM640 200h-40v40h40v-40zM760 200h-40v40h40v-40zM440 240h-40v40h40v-40zM600 240h-40v40h40v-40zM680 240h-40v40h40v-40zM760 240h-40v40h40v-40zM520 280h-40v40h40v-40zM560 280h-40v40h40v-40zM600 280h-40v40h40v-40zM640 280h-40v40h40v-40zM440 320h-40v40h40v-40zM520 320h-40v40h40v-40zM600 320h-40v40h40v-40zM680 320h-40v40h40v-40zM760 320h-40v40h40v-40zM520 360h-40v40h40v-40zM600 360h-40v40h40v-40zM640 360h-40v40h40v-40zM760 360h-40v40h40v-40zM120 400H80v40h40v-40zM240 400h-40v40h40v-40zM280 400h-40v40h40v-40zM320 400h-40v40h40v-40zM360 400h-40v40h40v-40zM400 400h-40v40h40v-40zM440 400h-40v40h40v-40zM480 400h-40v40h40v-40zM520 400h-40v40h40v-40zM560 400h-40v40h40v-40zM600 400h-40v40h40v-40zM680 400h-40v40h40v-40zM760 400h-40v40h40v-40zM800 400h-40v40h40v-40zM920 400h-40v40h40v-40zM1000 400h-40v40h40v-40zM1040 400h-40v40h40v-40zM1080 400h-40v40h40v-40zM120 440H80v40h40v-40zM160 440h-40v40h40v-40zM200 440h-40v40h40v-40zM280 440h-40v40h40v-40zM440 440h-40v40h40v-40zM640 440h-40v40h40v-40zM680 440h-40v40h40v-40zM720 440h-40v40h40v-40zM800 440h-40v40h40v-40zM880 440h-40v40h40v-40zM920 440h-40v40h40v-40zM960 440h-40v40h40v-40zM1000 440h-40v40h40v-40zM1040 440h-40v40h40v-40zM120 480H80v40h40v-40zM280 480h-40v40h40v-40zM360 480h-40v40h40v-40zM400 480h-40v40h40v-40zM560 480h-40v40h40v-40zM600 480h-40v40h40v-40zM640 480h-40v40h40v-40zM720 480h-40v40h40v-40zM760 480h-40v40h40v-40zM800 480h-40v40h40v-40zM960 480h-40v40h40v-40zM1080 480h-40v40h40v-40zM280 520h-40v40h40v-40zM320 520h-40v40h40v-40zM440 520h-40v40h40v-40zM520 520h-40v40h40v-40zM680 520h-40v40h40v-40zM760 520h-40v40h40v-40zM840 520h-40v40h40v-40zM960 520h-40v40h40v-40zM1000 520h-40v40h40v-40zM1040 520h-40v40h40v-40zM1080 520h-40v40h40v-40zM120 560H80v40h40v-40zM160 560h-40v40h40v-40zM240 560h-40v40h40v-40zM280 560h-40v40h40v-40zM320 560h-40v40h40v-40zM360 560h-40v40h40v-40zM520 560h-40v40h40v-40zM560 560h-40v40h40v-40zM600 560h-40v40h40v-40zM720 560h-40v40h40v-40zM760 560h-40v40h40v-40zM840 560h-40v40h40v-40zM920 560h-40v40h40v-40zM1080 560h-40v40h40v-40zM120 600H80v40h40v-40zM200 600h-40v40h40v-40zM240 600h-40v40h40v-40zM280 600h-40v40h40v-40zM400 600h-40v40h40v-40zM520 600h-40v40h40v-40zM680 600h-40v40h40v-40zM720 600h-40v40h40v-40zM760 600h-40v40h40v-40zM920 600h-40v40h40v-40zM1040 600h-40v40h40v-40zM120 640H80v40h40v-40zM160 640h-40v40h40v-40zM240 640h-40v40h40v-40zM320 640h-40v40h40v-40zM360 640h-40v40h40v-40zM440 640h-40v40h40v-40zM480 640h-40v40h40v-40zM520 640h-40v40h40v-40zM560 640h-40v40h40v-40zM600 640h-40v40h40v-40zM640 640h-40v40h40v-40zM680 640h-40v40h40v-40zM720 640h-40v40h40v-40zM760 640h-40v40h40v-40zM840 640h-40v40h40v-40zM920 640h-40v40h40v-40zM960 640h-40v40h40v-40zM1000 640h-40v40h40v-40zM1040 640h-40v40h40v-40zM1080 640h-40v40h40v-40zM120 680H80v40h40v-40zM280 680h-40v40h40v-40zM560 680h-40v40h40v-40zM800 680h-40v40h40v-40zM840 680h-40v40h40v-40zM880 680h-40v40h40v-40zM960 680h-40v40h40v-40zM1000 680h-40v40h40v-40zM1080 680h-40v40h40v-40zM120 720H80v40h40v-40zM240 720h-40v40h40v-40zM360 720h-40v40h40v-40zM400 720h-40v40h40v-40zM440 720h-40v40h40v-40zM680 720h-40v40h40v-40zM760 720h-40v40h40v-40zM800 720h-40v40h40v-40zM840 720h-40v40h40v-40zM880 720h-40v40h40v-40zM920 720h-40v40h40v-40zM1000 720h-40v40h40v-40zM1040 720h-40v40h40v-40zM440 760h-40v40h40v-40zM480 760h-40v40h40v-40zM560 760h-40v40h40v-40zM600 760h-40v40h40v-40zM640 760h-40v40h40v-40zM760 760h-40v40h40v-40zM920 760h-40v40h40v-40zM1000 760h-40v40h40v-40zM1040 760h-40v40h40v-40zM440 800h-40v40h40v-40zM480 800h-40v40h40v-40zM560 800h-40v40h40v-40zM760 800h-40v40h40v-40zM840 800h-40v40h40v-40zM920 800h-40v40h40v-40zM1080 800h-40v40h40v-40zM440 840h-40v40h40v-40zM520 840h-40v40h40v-40zM600 840h-40v40h40v-40zM680 840h-40v40h40v-40zM720 840h-40v40h40v-40zM760 840h-40v40h40v-40zM920 840h-40v40h40v-40zM1040 840h-40v40h40v-40zM1080 840h-40v40h40v-40zM440 880h-40v40h40v-40zM520 880h-40v40h40v-40zM600 880h-40v40h40v-40zM640 880h-40v40h40v-40zM680 880h-40v40h40v-40zM720 880h-40v40h40v-40zM760 880h-40v40h40v-40zM800 880h-40v40h40v-40zM840 880h-40v40h40v-40zM880 880h-40v40h40v-40zM920 880h-40v40h40v-40zM1040 880h-40v40h40v-40zM1080 880h-40v40h40v-40zM440 920h-40v40h40v-40zM520 920h-40v40h40v-40zM680 920h-40v40h40v-40zM720 920h-40v40h40v-40zM800 920h-40v40h40v-40zM840 920h-40v40h40v-40zM1040 920h-40v40h40v-40zM1080 920h-40v40h40v-40zM480 960h-40v40h40v-40zM600 960h-40v40h40v-40zM680 960h-40v40h40v-40zM720 960h-40v40h40v-40zM800 960h-40v40h40v-40zM920 960h-40v40h40v-40zM960 960h-40v40h40v-40zM1000 960h-40v40h40v-40zM1040 960h-40v40h40v-40zM1080 960h-40v40h40v-40zM480 1000h-40v40h40v-40zM680 1000h-40v40h40v-40zM720 1000h-40v40h40v-40zM760 1000h-40v40h40v-40zM880 1000h-40v40h40v-40zM920 1000h-40v40h40v-40zM1000 1000h-40v40h40v-40zM1040 1000h-40v40h40v-40zM1080 1000h-40v40h40v-40zM440 1040h-40v40h40v-40zM480 1040h-40v40h40v-40zM640 1040h-40v40h40v-40zM680 1040h-40v40h40v-40zM760 1040h-40v40h40v-40zM800 1040h-40v40h40v-40zM960 1040h-40v40h40v-40zM1080 1040h-40v40h40v-40zM318 80H80v280h280V80h-42zm0 238H122V122h196v196zM1038 80H800v280h280V80h-42zm0 238H842V122h196v196zM318 800H80v280h280V800h-42zm0 238H122V842h196v196z" fill="#000"/><path d="M280 160H160v120h120V160zM1000 160H880v120h120V160zM280 880H160v120h120V880z" fill="#000"/><path d="M2320 0H1160v1160h1160V0z" fill="#fff"/><path d="M1600 80h-40v40h40V80zM1640 80h-40v40h40V80zM1680 80h-40v40h40V80zM1720 80h-40v40h40V80zM1840 80h-40v40h40V80zM1920 80h-40v40h40V80zM1600 120h-40v40h40v-40zM1640 120h-40v40h40v-40zM1720 120h-40v40h40v-40zM1760 120h-40v40h40v-40zM1920 120h-40v40h40v-40zM1600 160h-40v40h40v-40zM1680 160h-40v40h40v-40zM1720 160h-40v40h40v-40zM1800 160h-40v40h40v-40zM1880 160h-40v40h40v-40zM1920 160h-40v40h40v-40zM1640 200h-40v40h40v-40zM1680 200h-40v40h40v-40zM1800 200h-40v40h40v-40zM1920 200h-40v40h40v-40zM1600 240h-40v40h40v-40zM1760 240h-40v40h40v-40zM1840 240h-40v40h40v-40zM1920 240h-40v40h40v-40zM1680 280h-40v40h40v-40zM1720 280h-40v40h40v-40zM1760 280h-40v40h40v-40zM1800 280h-40v40h40v-40zM1600 320h-40v40h40v-40zM1680 320h-40v40h40v-40zM1760 320h-40v40h40v-40zM1840 320h-40v40h40v-40zM1920 320h-40v40h40v-40zM1680 360h-40v40h40v-40zM1760 360h-40v40h40v-40zM1800 360h-40v40h40v-40zM1920 360h-40v40h40v-40zM1280 400h-40v40h40v-40zM1400 400h-40v40h40v-40zM1440 400h-40v40h40v-40zM1480 400h-40v40h40v-40zM1520 400h-40v40h40v-40zM1560 400h-40v40h40v-40zM1600 400h-40v40h40v-40zM1640 400h-40v40h40v-40zM1680 400h-40v40h40v-40zM1720 400h-40v40h40v-40zM1760 400h-40v40h40v-40zM1840 400h-40v40h40v-40zM1920 400h-40v40h40v-40zM1960 400h-40v40h40v-40zM2080 400h-40v40h40v-40zM2160 400h-40v40h40v-40zM2200 400h-40v40h40v-40zM2240 400h-40v40h40v-40zM1280 440h-40v40h40v-40zM1320 440h-40v40h40v-40zM1360 440h-40v40h40v-40zM1440 440h-40v40h40v-40zM1600 440h-40v40h40v-40zM1800 440h-40v40h40v-40zM1840 440h-40v40h40v-40zM1880 440h-40v40h40v-40zM1960 440h-40v40h40v-40zM2040 440h-40v40h40v-40zM2080 440h-40v40h40v-40zM2120 440h-40v40h40v-40zM2160 440h-40v40h40v-40zM2200 440h-40v40h40v-40zM1280 480h-40v40h40v-40zM1440 480h-40v40h40v-40zM1520 480h-40v40h40v-40zM1560 480h-40v40h40v-40zM1720 480h-40v40h40v-40zM1760 480h-40v40h40v-40zM1800 480h-40v40h40v-40zM1880 480h-40v40h40v-40zM1920 480h-40v40h40v-40zM1960 480h-40v40h40v-40zM2120 480h-40v40h40v-40zM2240 480h-40v40h40v-40zM1440 520h-40v40h40v-40zM1480 520h-40v40h40v-40zM1600 520h-40v40h40v-40zM1680 520h-40v40h40v-40zM1840 520h-40v40h40v-40zM1920 520h-40v40h40v-40zM2000 520h-40v40h40v-40zM2120 520h-40v40h40v-40zM2160 520h-40v40h40v-40zM2200 520h-40v40h40v-40zM2240 520h-40v40h40v-40zM1280 560h-40v40h40v-40zM1320 560h-40v40h40v-40zM1400 560h-40v40h40v-40zM1440 560h-40v40h40v-40zM1480 560h-40v40h40v-40zM1520 560h-40v40h40v-40zM1680 560h-40v40h40v-40zM1720 560h-40v40h40v-40zM1760 560h-40v40h40v-40zM1880 560h-40v40h40v-40zM1920 560h-40v40h40v-40zM2000 560h-40v40h40v-40zM2080 560h-40v40h40v-40zM2240 560h-40v40h40v-40zM1280 600h-40v40h40v-40zM1360 600h-40v40h40v-40zM1400 600h-40v40h40v-40zM1440 600h-40v40h40v-40zM1560 600h-40v40h40v-40zM1680 600h-40v40h40v-40zM1840 600h-40v40h40v-40zM1880 600h-40v40h40v-40zM1920 600h-40v40h40v-40zM2080 600h-40v40h40v-40zM2200 600h-40v40h40v-40zM1280 640h-40v40h40v-40zM1320 640h-40v40h40v-40zM1400 640h-40v40h40v-40zM1480 640h-40v40h40v-40zM1520 640h-40v40h40v-40zM1600 640h-40v40h40v-40zM1640 640h-40v40h40v-40zM1680 640h-40v40h40v-40zM1720 640h-40v40h40v-40zM1760 640h-40v40h40v-40zM1800 640h-40v40h40v-40zM1840 640h-40v40h40v-40zM1880 640h-40v40h40v-40zM1920 640h-40v40h40v-40zM2000 640h-40v40h40v-40zM2080 640h-40v40h40v-40zM2120 640h-40v40h40v-40zM2160 640h-40v40h40v-40zM2200 640h-40v40h40v-40zM2240 640h-40v40h40v-40zM1280 680h-40v40h40v-40zM1440 680h-40v40h40v-40zM1720 680h-40v40h40v-40zM1960 680h-40v40h40v-40zM2000 680h-40v40h40v-40zM2040 680h-40v40h40v-40zM2120 680h-40v40h40v-40zM2160 680h-40v40h40v-40zM2240 680h-40v40h40v-40zM1280 720h-40v40h40v-40zM1400 720h-40v40h40v-40zM1520 720h-40v40h40v-40zM1560 720h-40v40h40v-40zM1600 720h-40v40h40v-40zM1840 720h-40v40h40v-40zM1920 720h-40v40h40v-40zM1960 720h-40v40h40v-40zM2000 720h-40v40h40v-40zM2040 720h-40v40h40v-40zM2080 720h-40v40h40v-40zM2160 720h-40v40h40v-40zM2200 720h-40v40h40v-40zM1600 760h-40v40h40v-40zM1640 760h-40v40h40v-40zM1720 760h-40v40h40v-40zM1760 760h-40v40h40v-40zM1800 760h-40v40h40v-40zM1920 760h-40v40h40v-40zM2080 760h-40v40h40v-40zM2160 760h-40v40h40v-40zM2200 760h-40v40h40v-40zM1600 800h-40v40h40v-40zM1640 800h-40v40h40v-40zM1720 800h-40v40h40v-40zM1920 800h-40v40h40v-40zM2000 800h-40v40h40v-40zM2080 800h-40v40h40v-40zM2240 800h-40v40h40v-40zM1600 840h-40v40h40v-40zM1680 840h-40v40h40v-40zM1760 840h-40v40h40v-40zM1840 840h-40v40h40v-40zM1880 840h-40v40h40v-40zM1920 840h-40v40h40v-40zM2080 840h-40v40h40v-40zM2200 840h-40v40h40v-40zM2240 840h-40v40h40v-40zM1600 880h-40v40h40v-40zM1680 880h-40v40h40v-40zM1760 880h-40v40h40v-40zM1800 880h-40v40h40v-40zM1840 880h-40v40h40v-40zM1880 880h-40v40h40v-40zM1920 880h-40v40h40v-40zM1960 880h-40v40h40v-40zM2000 880h-40v40h40v-40zM2040 880h-40v40h40v-40zM2080 880h-40v40h40v-40zM2200 880h-40v40h40v-40zM2240 880h-40v40h40v-40zM1600 920h-40v40h40v-40zM1680 920h-40v40h40v-40zM1840 920h-40v40h40v-40zM1880 920h-40v40h40v-40zM1960 920h-40v40h40v-40zM2000 920h-40v40h40v-40zM2200 920h-40v40h40v-40zM2240 920h-40v40h40v-40zM1640 960h-40v40h40v-40zM1760 960h-40v40h40v-40zM1840 960h-40v40h40v-40zM1880 960h-40v40h40v-40zM1960 960h-40v40h40v-40zM2080 960h-40v40h40v-40zM2120 960h-40v40h40v-40zM2160 960h-40v40h40v-40zM2200 960h-40v40h40v-40zM2240 960h-40v40h40v-40zM1640 1000h-40v40h40v-40zM1840 1000h-40v40h40v-40zM1880 1000h-40v40h40v-40zM1920 1000h-40v40h40v-40zM2040 1000h-40v40h40v-40zM2080 1000h-40v40h40v-40zM2160 1000h-40v40h40v-40zM2200 1000h-40v40h40v-40zM2240 1000h-40v40h40v-40zM1600 1040h-40v40h40v-40zM1640 1040h-40v40h40v-40zM1800 1040h-40v40h40v-40zM1840 1040h-40v40h40v-40zM1920 1040h-40v40h40v-40zM1960 1040h-40v40h40v-40zM2120 1040h-40v40h40v-40zM2240 1040h-40v40h40v-40zM1478 80h-238v280h280V80h-42zm0 238h-196V122h196v196zM2198 80h-238v280h280V80h-42zm0 238h-196V122h196v196zM1478 800h-238v280h280V800h-42zm0 238h-196V842h196v196z" fill="#A4A8A8"/><path d="M1440 160h-120v120h120V160zM2160 160h-120v120h120V160zM1440 880h-120v120h120V880z" fill="#A4A8A8"/></g><defs><clipPath id="a"><path fill="#fff" d="M0 0h2320v1160H0z"/></clipPath></defs></svg>