<svg width="1160" height="1160" fill="none" xmlns="http://www.w3.org/2000/svg"><g clip-path="url(#a)"><path fill="#fff" d="M0 0h1160v1160H0z"/><path d="M1160 0H0v1160h1160V0z" fill="#fff"/><path d="M426 96h-10v10h10V96zM466 96h-10v10h10V96zM506 96h-10v10h10V96zM546 96h-10v10h10V96zM666 96h-10v10h10V96zM746 96h-10v10h10V96zM426 136h-10v10h10v-10zM466 136h-10v10h10v-10zM546 136h-10v10h10v-10zM586 136h-10v10h10v-10zM746 136h-10v10h10v-10zM426 176h-10v10h10v-10zM506 176h-10v10h10v-10zM546 176h-10v10h10v-10zM626 176h-10v10h10v-10zM706 176h-10v10h10v-10zM746 176h-10v10h10v-10zM466 216h-10v10h10v-10zM506 216h-10v10h10v-10zM626 216h-10v10h10v-10zM746 216h-10v10h10v-10zM426 256h-10v10h10v-10zM586 256h-10v10h10v-10zM666 256h-10v10h10v-10zM746 256h-10v10h10v-10zM506 296h-10v10h10v-10zM546 296h-10v10h10v-10zM586 296h-10v10h10v-10zM626 296h-10v10h10v-10zM426 336h-10v10h10v-10zM506 336h-10v10h10v-10zM586 336h-10v10h10v-10zM666 336h-10v10h10v-10zM746 336h-10v10h10v-10zM506 376h-10v10h10v-10zM586 376h-10v10h10v-10zM626 376h-10v10h10v-10zM746 376h-10v10h10v-10zM106 416H96v10h10v-10zM226 416h-10v10h10v-10zM266 416h-10v10h10v-10zM306 416h-10v10h10v-10zM346 416h-10v10h10v-10zM386 416h-10v10h10v-10zM426 416h-10v10h10v-10zM466 416h-10v10h10v-10zM506 416h-10v10h10v-10zM546 416h-10v10h10v-10zM586 416h-10v10h10v-10zM666 416h-10v10h10v-10zM746 416h-10v10h10v-10zM786 416h-10v10h10v-10zM906 416h-10v10h10v-10zM986 416h-10v10h10v-10zM1026 416h-10v10h10v-10zM1066 416h-10v10h10v-10zM106 456H96v10h10v-10zM146 456h-10v10h10v-10zM186 456h-10v10h10v-10zM266 456h-10v10h10v-10zM426 456h-10v10h10v-10zM626 456h-10v10h10v-10zM666 456h-10v10h10v-10zM706 456h-10v10h10v-10zM786 456h-10v10h10v-10zM866 456h-10v10h10v-10zM906 456h-10v10h10v-10zM946 456h-10v10h10v-10zM986 456h-10v10h10v-10zM1026 456h-10v10h10v-10zM106 496H96v10h10v-10zM266 496h-10v10h10v-10zM346 496h-10v10h10v-10zM386 496h-10v10h10v-10zM546 496h-10v10h10v-10zM586 496h-10v10h10v-10zM626 496h-10v10h10v-10zM706 496h-10v10h10v-10zM746 496h-10v10h10v-10zM786 496h-10v10h10v-10zM946 496h-10v10h10v-10zM1066 496h-10v10h10v-10zM266 536h-10v10h10v-10zM306 536h-10v10h10v-10zM426 536h-10v10h10v-10zM506 536h-10v10h10v-10zM666 536h-10v10h10v-10zM746 536h-10v10h10v-10zM826 536h-10v10h10v-10zM946 536h-10v10h10v-10zM986 536h-10v10h10v-10zM1026 536h-10v10h10v-10zM1066 536h-10v10h10v-10zM106 576H96v10h10v-10zM146 576h-10v10h10v-10zM226 576h-10v10h10v-10zM266 576h-10v10h10v-10zM306 576h-10v10h10v-10zM346 576h-10v10h10v-10zM506 576h-10v10h10v-10zM546 576h-10v10h10v-10zM586 576h-10v10h10v-10zM706 576h-10v10h10v-10zM746 576h-10v10h10v-10zM826 576h-10v10h10v-10zM906 576h-10v10h10v-10zM1066 576h-10v10h10v-10zM106 616H96v10h10v-10zM186 616h-10v10h10v-10zM226 616h-10v10h10v-10zM266 616h-10v10h10v-10zM386 616h-10v10h10v-10zM506 616h-10v10h10v-10zM666 616h-10v10h10v-10zM706 616h-10v10h10v-10zM746 616h-10v10h10v-10zM906 616h-10v10h10v-10zM1026 616h-10v10h10v-10zM106 656H96v10h10v-10zM146 656h-10v10h10v-10zM226 656h-10v10h10v-10zM306 656h-10v10h10v-10zM346 656h-10v10h10v-10zM426 656h-10v10h10v-10zM466 656h-10v10h10v-10zM506 656h-10v10h10v-10zM546 656h-10v10h10v-10zM586 656h-10v10h10v-10zM626 656h-10v10h10v-10zM666 656h-10v10h10v-10zM706 656h-10v10h10v-10zM746 656h-10v10h10v-10zM826 656h-10v10h10v-10zM906 656h-10v10h10v-10zM946 656h-10v10h10v-10zM986 656h-10v10h10v-10zM1026 656h-10v10h10v-10zM1066 656h-10v10h10v-10zM106 696H96v10h10v-10zM266 696h-10v10h10v-10zM546 696h-10v10h10v-10zM786 696h-10v10h10v-10zM826 696h-10v10h10v-10zM866 696h-10v10h10v-10zM946 696h-10v10h10v-10zM986 696h-10v10h10v-10zM1066 696h-10v10h10v-10zM106 736H96v10h10v-10zM226 736h-10v10h10v-10zM346 736h-10v10h10v-10zM386 736h-10v10h10v-10zM426 736h-10v10h10v-10zM666 736h-10v10h10v-10zM746 736h-10v10h10v-10zM786 736h-10v10h10v-10zM826 736h-10v10h10v-10zM866 736h-10v10h10v-10zM906 736h-10v10h10v-10zM986 736h-10v10h10v-10zM1026 736h-10v10h10v-10zM426 776h-10v10h10v-10zM466 776h-10v10h10v-10zM546 776h-10v10h10v-10zM586 776h-10v10h10v-10zM626 776h-10v10h10v-10zM746 776h-10v10h10v-10zM906 776h-10v10h10v-10zM986 776h-10v10h10v-10zM1026 776h-10v10h10v-10zM426 816h-10v10h10v-10zM466 816h-10v10h10v-10zM546 816h-10v10h10v-10zM746 816h-10v10h10v-10zM826 816h-10v10h10v-10zM906 816h-10v10h10v-10zM1066 816h-10v10h10v-10zM426 856h-10v10h10v-10zM506 856h-10v10h10v-10zM586 856h-10v10h10v-10zM666 856h-10v10h10v-10zM706 856h-10v10h10v-10zM746 856h-10v10h10v-10zM906 856h-10v10h10v-10zM1026 856h-10v10h10v-10zM1066 856h-10v10h10v-10zM426 896h-10v10h10v-10zM506 896h-10v10h10v-10zM586 896h-10v10h10v-10zM626 896h-10v10h10v-10zM666 896h-10v10h10v-10zM706 896h-10v10h10v-10zM746 896h-10v10h10v-10zM786 896h-10v10h10v-10zM826 896h-10v10h10v-10zM866 896h-10v10h10v-10zM906 896h-10v10h10v-10zM1026 896h-10v10h10v-10zM1066 896h-10v10h10v-10zM426 936h-10v10h10v-10zM506 936h-10v10h10v-10zM666 936h-10v10h10v-10zM706 936h-10v10h10v-10zM786 936h-10v10h10v-10zM826 936h-10v10h10v-10zM1026 936h-10v10h10v-10zM1066 936h-10v10h10v-10zM466 976h-10v10h10v-10zM586 976h-10v10h10v-10zM666 976h-10v10h10v-10zM706 976h-10v10h10v-10zM786 976h-10v10h10v-10zM906 976h-10v10h10v-10zM946 976h-10v10h10v-10zM986 976h-10v10h10v-10zM1026 976h-10v10h10v-10zM1066 976h-10v10h10v-10zM466 1016h-10v10h10v-10zM666 1016h-10v10h10v-10zM706 1016h-10v10h10v-10zM746 1016h-10v10h10v-10zM866 1016h-10v10h10v-10zM906 1016h-10v10h10v-10zM986 1016h-10v10h10v-10zM1026 1016h-10v10h10v-10zM1066 1016h-10v10h10v-10zM426 1056h-10v10h10v-10zM466 1056h-10v10h10v-10zM626 1056h-10v10h10v-10zM666 1056h-10v10h10v-10zM746 1056h-10v10h10v-10zM786 1056h-10v10h10v-10zM946 1056h-10v10h10v-10zM1066 1056h-10v10h10v-10zM318 80H80v280h280V80h-42zm0 238H122V122h196v196zM1038 80H800v280h280V80h-42zm0 238H842V122h196v196zM318 800H80v280h280V800h-42zm0 238H122V842h196v196z" fill="#000"/><path d="M280 160H160v120h120V160zM1000 160H880v120h120V160zM280 880H160v120h120V880z" fill="#000"/><path fill="#fff" d="M72 791h88v89H72zM75 1000h85v86H75zM280 1000h87v84h-87zM280 797h85v83h-85zM72 71h88v89H72zM75 280h85v86H75zM280 280h87v84h-87zM280 77h85v83h-85zM792 71h88v89h-88zM795 280h85v86h-85zM1000 280h87v84h-87zM1000 77h85v83h-85z"/></g><defs><clipPath id="a"><path fill="#fff" d="M0 0h1160v1160H0z"/></clipPath></defs></svg>